<?xml version="1.0" encoding="UTF-8"?>
<svg width="1200pt" height="1200pt" version="1.1" viewBox="0 0 1200 1200" xmlns="http://www.w3.org/2000/svg">
 <g>
  <path d="m281.25 375c-41.363 0-75 33.637-75 75s33.637 75 75 75 75-33.637 75-75-33.637-75-75-75zm0 112.5c-20.68 0-37.5-16.82-37.5-37.5s16.82-37.5 37.5-37.5 37.5 16.82 37.5 37.5-16.82 37.5-37.5 37.5z"/>
  <path d="m768.75 75c-61.031 0-118.48 15.469-168.75 42.617-50.27-27.148-107.72-42.617-168.75-42.617-196.45 0-356.25 159.8-356.25 356.25v243.75c0 10.367 8.3828 18.75 18.75 18.75h75v150c0 51.695 42.055 93.75 93.75 93.75h150v93.75c0 31.012-25.238 56.25-56.25 56.25h-206.25v37.5h206.25c51.695 0 93.75-42.055 93.75-93.75v-600c0-113.76 60.094-213.51 150-269.93 89.906 56.418 150 156.17 150 269.93v600c0 51.695 42.055 93.75 93.75 93.75h206.25v-37.5h-206.25c-31.012 0-56.25-25.238-56.25-56.25v-93.75h150c51.695 0 93.75-42.055 93.75-93.75v-150h75c10.367 0 18.75-8.3828 18.75-18.75v-243.75c0-196.45-159.8-356.25-356.25-356.25zm-356.25 356.25v468.75h-150c-31.012 0-56.25-25.238-56.25-56.25v-168.75c0-10.367-8.3828-18.75-18.75-18.75h-75v-225c0-175.76 142.99-318.75 318.75-318.75 46.895 0 91.293 10.426 131.42 28.688-90.711 64.648-150.17 170.44-150.17 290.06zm675 225h-75c-10.367 0-18.75 8.3828-18.75 18.75v168.75c0 31.012-25.238 56.25-56.25 56.25h-150v-468.75c0-119.62-59.457-225.41-150.17-290.06 40.125-18.262 84.523-28.688 131.42-28.688 175.76 0 318.75 142.99 318.75 318.75z"/>
  <path d="m918.75 375c-41.363 0-75 33.637-75 75s33.637 75 75 75 75-33.637 75-75-33.637-75-75-75zm0 112.5c-20.68 0-37.5-16.82-37.5-37.5s16.82-37.5 37.5-37.5 37.5 16.82 37.5 37.5-16.82 37.5-37.5 37.5z"/>
 </g>
</svg>
